<svg xmlns="http://www.w3.org/2000/svg" xmlns:xlink="http://www.w3.org/1999/xlink" viewBox="0 0 500 500" width="500" height="500" preserveAspectRatio="xMidYMid meet" style="width: 100%; height: 100%; transform: translate3d(0px, 0px, 0px); content-visibility: visible;"><defs><clipPath id="__lottie_element_48"><rect width="500" height="500" x="0" y="0"></rect></clipPath></defs><g clip-path="url(#__lottie_element_48)"><g transform="matrix(1.1799999475479126,0,0,1.1799999475479126,-43,-35)" opacity="1" style="display: block;"><g opacity="1" transform="matrix(1,0,0,1,314.8340148925781,266.9530029296875)"><path stroke-linecap="round" stroke-linejoin="round" fill-opacity="0" stroke="rgb(0,0,0)" stroke-opacity="1" stroke-width="13" d=" M64.802001953125,25.41200065612793 C65.0989990234375,21.815000534057617 65.2509994506836,18.177000045776367 65.2509994506836,14.503999710083008 C65.2509994506836,14.503999710083008 65.2509994506836,-58.018001556396484 65.2509994506836,-58.018001556396484 C65.29199981689453,-90.13899993896484 53.444000244140625,-121.13999938964844 31.992000579833984,-145.04800415039062"></path></g><g opacity="1" transform="matrix(1,0,0,1,158.88099670410156,319.85101318359375)"><path stroke-linecap="round" stroke-linejoin="round" fill-opacity="0" stroke="rgb(0,0,0)" stroke-opacity="1" stroke-width="13" d=" M-39.88100051879883,-77.84200286865234 C-39.88100051879883,-67.02999877929688 -39.88100051879883,-38.39400100708008 -39.88100051879883,-38.39400100708008 C-39.89500045776367,14.098999977111816 -8.465999603271484,61.494998931884766 39.89500045776367,81.90899658203125"></path></g><g opacity="1" transform="matrix(1,0,0,1,217.00900268554688,130.75799560546875)"><path stroke-linecap="round" stroke-linejoin="round" fill-opacity="0" stroke="rgb(0,0,0)" stroke-opacity="1" stroke-width="13" d=" M97.80500030517578,-34.875 C35.367000579833984,-70.9229965209961 -44.47200012207031,-49.52799987792969 -80.5199966430664,12.90999984741211 C-90.74800109863281,30.625999450683594 -96.66799926757812,50.49700164794922 -97.80500030517578,70.9219970703125"></path></g><g opacity="1" transform="matrix(1,0,0,1,274.927001953125,206.49200439453125)"><path stroke-linecap="round" stroke-linejoin="round" fill-opacity="0" stroke="rgb(0,0,0)" stroke-opacity="1" stroke-width="13" d=" M-61.645999908447266,-76.69599914550781 C-17.95199966430664,-96.7229995727539 33.70199966430664,-77.53700256347656 53.72800064086914,-33.84400177001953 C58.946998596191406,-22.458999633789062 61.64699935913086,-10.081999778747559 61.64500045776367,2.441999912261963 C61.64500045776367,2.441999912261963 61.64500045776367,74.96499633789062 61.64500045776367,74.96499633789062 C61.64699935913086,82.30400085449219 60.72600173950195,89.61399841308594 58.902000427246094,96.7229995727539"></path></g><g opacity="1" transform="matrix(1,0,0,1,238.44700622558594,264.6400146484375)"><path stroke-linecap="round" stroke-linejoin="round" fill-opacity="0" stroke="rgb(0,0,0)" stroke-opacity="1" stroke-width="13" d=" M75.96099853515625,74.83699798583984 C43.91600036621094,110.66100311279297 -11.10200023651123,113.7249984741211 -46.92599868774414,81.68099975585938 C-65.38300323486328,65.1709976196289 -75.93299865722656,41.58100128173828 -75.93299865722656,16.816999435424805 C-75.93299865722656,16.816999435424805 -75.93299865722656,-55.70600128173828 -75.93299865722656,-55.70600128173828 C-75.96099853515625,-77.11900329589844 -68.06700134277344,-97.78500366210938 -53.77000045776367,-113.7249984741211"></path></g><g opacity="1" transform="matrix(1,0,0,1,249.54200744628906,245.19500732421875)"><path stroke-linecap="round" stroke-linejoin="round" fill-opacity="0" stroke="rgb(0,0,0)" stroke-opacity="1" stroke-width="13" d=" M26.125999450683594,-71.06300354003906 C18.85099983215332,-76.53399658203125 9.803999900817871,-79.7760009765625 0,-79.7760009765625 C-24.031999588012695,-79.7760009765625 -43.513999938964844,-60.29399871826172 -43.513999938964844,-36.26100158691406 C-43.513999938964844,-36.26100158691406 -43.513999938964844,7.252999782562256 -43.513999938964844,7.252999782562256"></path></g><g opacity="1" transform="matrix(1,0,0,1,0,0)"><path stroke-linecap="round" stroke-linejoin="round" fill-opacity="0" stroke="rgb(0,0,0)" stroke-opacity="1" stroke-width="13" d="M0 0"></path></g><g opacity="1" transform="matrix(1,0,0,1,0,0)"><path stroke-linecap="round" stroke-linejoin="round" fill-opacity="0" stroke="rgb(0,0,0)" stroke-opacity="1" stroke-width="13" d="M0 0"></path></g></g></g></svg>