<svg viewBox="0 0 392 563" fill="none" xmlns="http://www.w3.org/2000/svg" class="absolute inset-x-0 top-[28px] mx-auto h-[194px] w-[134px] md:left-auto md:right-[68px] md:top-[-142px] md:mx-0 md:h-[290px] md:w-[202px] xl:right-[88px] xl:top-[-400px] xl:h-[422px] xl:w-[292px]"><path d="M187.617 511.299C187.617 511.299 180.368 492.488 175.384 499.466C171.31 505.177 187.617 511.299 187.617 511.299Z" stroke="#111717" stroke-width="2" stroke-linejoin="bevel"></path><path d="M188.851 511.145C188.309 512.315 174.212 525.025 171.395 516.53C169.261 510.072 188.851 511.145 188.851 511.145Z" stroke="#111717" stroke-width="2" stroke-linejoin="bevel"></path><path d="M157.843 388.111C157.03 368.944 145.61 361.186 139.9 359.149C134.19 357.112 122.487 356.57 113.386 375.878C104.187 395.382 109.593 413.542 110.742 416.923C113.798 417.053 118.424 418.364 118.695 425.038C118.695 425.038 127.873 418.104 129.509 426.869C129.509 426.869 139.38 416.24 148.871 421.354C155.882 413.759 158.407 400.854 157.865 388.111H157.843Z" fill="#FFF8F3" stroke="#111717" stroke-width="2"></path><mask id="mask0_8834_11697" style="mask-type:luminance;" maskUnits="userSpaceOnUse" x="108" y="358" width="50" height="69"><path d="M157.844 388.111C157.031 368.944 145.611 361.186 139.901 359.149C134.19 357.112 122.488 356.57 113.387 375.878C104.187 395.382 109.594 413.542 110.743 416.923C113.798 417.053 118.425 418.364 118.696 425.038C118.696 425.038 127.873 418.104 129.51 426.869C129.51 426.869 139.38 416.24 148.872 421.354C155.883 413.759 158.407 400.854 157.866 388.111H157.844Z" fill="white"></path></mask><g mask="url(#mask0_8834_11697)"><path d="M153.554 364.86C153.554 364.86 119.293 383.833 119.9 435.842L80.1233 410.141L90.5252 339.776L129.077 325.701L153.554 364.86Z" fill="#111717"></path></g><path d="M129.486 426.859C127.85 418.093 118.672 425.028 118.672 425.028C118.401 418.364 113.775 417.053 110.719 416.912C110.849 417.281 110.925 417.476 110.925 417.476C110.925 417.476 114.143 429.47 134.589 428.083C140.614 427.672 145.305 425.19 148.848 421.344C139.357 416.23 129.486 426.859 129.486 426.859Z" fill="#111717" stroke="#111717" stroke-width="2"></path><path d="M129.485 426.86C130.297 427.672 141.111 456.234 143.56 471.729C146.008 487.234 134.989 491.72 133.364 482.336C133.364 482.336 130.102 500.28 122.756 496.617C115.41 492.944 116.634 475.814 116.634 475.814C116.634 475.814 113.773 487.234 107.662 483.561C101.54 479.888 102.765 468.055 103.588 459.084C104.412 450.112 118.682 425.018 118.682 425.018L129.495 426.849L129.485 426.86Z" fill="#111717"></path><path d="M137.645 409.328C137.645 409.328 140.299 403.206 142.542 399.944C139.075 399.533 136.02 400.15 136.02 400.15" stroke="#111717" stroke-width="2" stroke-linejoin="bevel"></path><path d="M132.346 405.037C129.963 405.037 129.898 410.141 131.534 409.111C133.17 408.082 133.777 405.037 132.346 405.037Z" fill="#111717"></path><path d="M145.392 404.842C143.009 404.842 142.944 409.945 144.58 408.916C146.216 407.886 146.823 404.842 145.392 404.842Z" fill="#111717"></path><path d="M135.194 394.635C135.194 394.635 138.662 390.561 144.166 394.429" stroke="#111717" stroke-width="2" stroke-linejoin="bevel"></path><path d="M247.991 384.436C252.065 387.297 289.187 405.24 306.73 415.035C324.272 424.83 335.692 440.325 340.991 441.961C346.289 443.597 347.514 440.736 345.888 437.475C344.252 434.214 332.019 415.035 332.019 415.035C332.019 415.035 354.459 427.268 362.206 426.044C369.954 424.819 359.758 417.072 359.758 417.072C359.758 417.072 373.345 421.081 374.439 417.072C375.664 412.586 363.431 406.063 363.431 406.063C363.431 406.063 383.01 411.362 382.197 405.251C381.385 399.14 375.263 399.129 375.263 399.129C375.263 399.129 394.431 402.802 390.357 395.456C386.282 388.109 366.692 389.334 341.814 378.726C316.936 368.118 270.832 336.707 259.011 329.371L238.207 344.465L248.002 384.436H247.991Z" fill="#FFF8F3" stroke="black" stroke-width="2"></path><mask id="mask1_8834_11697" style="mask-type:luminance;" maskUnits="userSpaceOnUse" x="238" y="329" width="153" height="114"><path d="M247.993 384.436C252.067 387.297 289.189 405.24 306.731 415.035C324.273 424.83 335.694 440.325 340.992 441.961C346.291 443.597 347.515 440.736 345.89 437.475C344.254 434.214 332.021 415.035 332.021 415.035C332.021 415.035 354.461 427.268 362.208 426.044C369.955 424.819 359.759 417.072 359.759 417.072C359.759 417.072 373.347 421.081 374.441 417.072C375.665 412.586 363.432 406.063 363.432 406.063C363.432 406.063 383.012 411.362 382.199 405.251C381.386 399.14 375.264 399.129 375.264 399.129C375.264 399.129 394.432 402.802 390.358 395.456C386.284 388.109 366.694 389.334 341.816 378.726C316.938 368.118 270.834 336.707 259.012 329.371L238.209 344.465L248.004 384.436H247.993Z" fill="white"></path></mask><g mask="url(#mask1_8834_11697)"><path d="M274.096 334.27C274.096 335.028 273.132 338.16 270.91 342.364C262.448 358.357 257.778 376.083 257.778 394.178V396.28L234.937 384.448L226.778 336.318L243.096 314.701L274.096 334.281V334.27Z" fill="#111717"></path></g><path d="M339.766 408.502L360.813 417.5" stroke="#111717" stroke-width="2" stroke-linejoin="bevel"></path><path d="M345.887 399.119L364.519 406.378" stroke="#111717" stroke-width="2" stroke-linejoin="bevel"></path><path d="M353.235 392.184L378.339 399.974" stroke="#111717" stroke-width="2" stroke-linejoin="bevel"></path><path d="M113.374 415.848C103.991 448.885 96.2433 514.157 96.2433 532.512C96.2433 550.867 98.2804 559.839 90.1214 561.063C81.9624 562.288 81.5506 543.12 81.5506 541.896C81.5506 540.671 58.5581 557.823 52.1869 560.651C41.3733 565.462 48.6438 552.958 48.9147 552.503C48.4488 552.72 33.5394 559.73 28.9344 560.651C20.7754 562.288 21.588 555.353 21.588 555.353C15.0652 557.39 1.66187 562.688 1.19595 556.166C0.784212 550.455 38.7187 533.737 45.2523 525.578C51.7752 517.419 58.7098 482.334 64.0083 447.661C68.9383 415.48 67.8765 392.076 83.0459 359.19C89.6013 352.754 100.198 346.188 112.962 352.213C124.784 357.793 127.579 369.82 127.677 379.593C123.137 387.178 118.499 397.807 113.374 415.848Z" fill="#FFF8F3" stroke="#111717" stroke-width="2"></path><path d="M186.546 327.271C174.681 335.657 145.827 356.407 139.076 364.447C135.187 369.073 131.459 373.288 127.678 379.595C127.58 369.821 124.785 357.794 112.963 352.214C100.199 346.189 89.6025 352.756 83.0471 359.192C84.2173 356.656 85.4851 354.056 86.8611 351.39C103.092 319.957 133.388 298.178 170.77 274.395C173.847 282.315 181.02 302.057 186.546 327.271Z" fill="#FFF8F3" stroke="#111717" stroke-width="2"></path><path d="M342.216 254.316C326.169 267.448 292.179 284.536 274.116 293.204C275.958 266.267 269.132 239.97 261.525 222.146C279.425 213.033 291.637 207.399 291.637 207.399C291.637 207.399 278.169 192.717 267.972 181.297C263.118 175.868 252.825 164.903 243.365 154.891L288.386 113.262C292.07 124.238 298.214 134.412 318.963 149.885C339.767 165.38 362.316 187.245 365.469 206.586C368.318 224.129 364.645 235.95 342.216 254.316Z" fill="#FFF8F3" stroke="black" stroke-width="2"></path><path d="M288.387 113.252L243.366 154.892C232.932 143.862 222.085 132.344 222.085 132.344C222.085 132.344 291.453 70.5502 291.529 71.7637C291.941 77.8749 284.703 102.157 288.365 113.176C288.376 113.198 288.387 113.23 288.387 113.252Z" fill="#FFF8F3" stroke="#111717" stroke-width="2"></path><path d="M189.233 504.949C200.35 469.041 194.781 428.701 193.773 386.227C204.208 383.485 230.516 374.806 249.943 353.504C250.117 368.067 250.247 386.996 250.03 401.158C249.781 417.313 250.594 454.987 251.265 481.957L189.233 504.949Z" fill="#FFF8F3" stroke="#111717" stroke-width="2"></path><path d="M252.066 512.11C233.3 524.354 168.439 543.521 168.439 543.521C178.495 531.375 185.039 518.481 189.232 504.948L251.265 481.955C251.698 499.227 252.066 512.11 252.066 512.11Z" fill="#FFF8F3" stroke="#111717" stroke-width="2"></path><path d="M243.506 0.585938L178.234 57.6989C178.234 58.1106 214.944 113.587 214.944 113.587L279.913 53.8307L243.506 0.596783V0.585938Z" fill="#111717"></path><path d="M279.912 53.8301L187.021 138.909L186.804 139.277L199.449 152.334L292.047 71.5675L279.912 53.8301Z" fill="#111717"></path><path d="M190.067 57.6985L220.655 108.278L274.506 58.1103L240.646 11.1934L190.067 57.6985Z" fill="#FFF8F3"></path><path d="M247.69 49.1289C246.79 45.4449 244.699 42.1727 241.048 39.7456C238.577 38.0986 235.489 38.3586 232.271 39.8864C232.509 35.5848 234.536 31.3157 239.011 29.1378C248.058 24.7604 254.646 41.0133 247.69 49.1289Z" fill="#FFF8F3" stroke="#111717" stroke-width="2"></path><path d="M231.543 82.9538L231.543 82.9542C229.043 84.5285 226.605 84.6926 224.384 83.9312C222.125 83.1572 220.012 81.3958 218.31 78.9903C214.891 74.1565 213.363 67.054 215.472 61.3037L215.472 61.3032C216.965 57.2248 219.577 52.8862 222.687 49.1569C225.362 45.9495 228.36 43.2472 231.267 41.547C231.435 45.1265 232.713 48.6111 234.83 50.938C236.068 52.298 237.619 53.2887 239.423 53.6189C241.235 53.9507 243.199 53.5966 245.216 52.4448C245.888 52.0625 246.503 51.6309 247.062 51.1586C247.82 56.6239 246.18 62.9257 243.323 68.6459C240.151 74.9977 235.588 80.4105 231.543 82.9538Z" fill="#FFF8F3" stroke="#111717" stroke-width="2"></path><path d="M247.689 49.1293C246.888 50.072 245.901 50.9063 244.72 51.5781C237.342 55.793 231.848 47.764 232.271 39.8868C235.489 38.359 238.577 38.099 241.047 39.7459C244.699 42.173 246.79 45.4453 247.689 49.1293Z" fill="#111717"></path><path d="M274.114 293.204C273.193 306.651 270.116 320.239 263.897 333.035C260.072 340.891 255.272 347.674 249.941 353.503C230.513 374.805 204.205 383.484 193.771 386.226C193.749 385.63 193.738 385.034 193.727 384.438C193.305 364.187 190.303 344.456 186.543 327.271C181.017 302.057 173.844 282.315 170.767 274.394C177.518 270.093 184.506 265.737 191.69 261.24C216.091 245.963 242.139 232.017 261.524 222.146C269.13 239.971 275.956 266.268 274.114 293.204Z" fill="#FD8EF0"></path><path d="M274.115 293.204C273.194 306.651 270.117 320.239 263.898 333.035C260.073 340.891 255.273 347.674 249.942 353.503C230.514 374.805 204.206 383.484 193.771 386.226C193.75 385.63 193.739 385.034 193.728 384.438C193.306 364.187 190.304 344.456 186.544 327.271C181.018 302.057 173.845 282.315 170.768 274.394C177.518 270.093 184.507 265.737 191.691 261.24C216.092 245.963 242.14 232.017 261.525 222.146C269.131 239.971 275.957 266.268 274.115 293.204Z" fill="#FD7C0F" stroke="#111717" stroke-width="2"></path><mask id="mask2_8834_11697" style="mask-type:luminance;" maskUnits="userSpaceOnUse" x="170" y="222" width="105" height="165"><path d="M274.117 293.204C273.196 306.651 270.119 320.239 263.899 333.035C260.074 340.891 255.274 347.674 249.943 353.503C230.516 374.805 204.207 383.484 193.773 386.226C193.751 385.63 193.741 385.034 193.73 384.438C193.307 364.187 190.306 344.456 186.546 327.271C181.02 302.057 173.847 282.315 170.77 274.394C177.52 270.093 184.509 265.737 191.693 261.24C216.094 245.963 242.142 232.017 261.526 222.146C269.133 239.971 275.959 266.268 274.117 293.204Z" fill="white"></path></mask><g mask="url(#mask2_8834_11697)"><path d="M174.354 293.887L222.701 385.25" stroke="#111717" stroke-width="2" stroke-linejoin="bevel"></path><path d="M174.974 294.699L242.684 370.98" stroke="#111717" stroke-width="2" stroke-linejoin="bevel"></path><path d="M175.579 293.27L259.411 356.299" stroke="#111717" stroke-width="2" stroke-linejoin="bevel"></path><path d="M170.486 290.615L278.991 337.933" stroke="#111717" stroke-width="2" stroke-linejoin="bevel"></path><path d="M173.749 290.215L277.768 312.85" stroke="#111717" stroke-width="2" stroke-linejoin="bevel"></path><path d="M170.486 288.176L290.823 294.287" stroke="#111717" stroke-width="2" stroke-linejoin="bevel"></path><path d="M171.916 284.091L285.113 272.465" stroke="#111717" stroke-width="2" stroke-linejoin="bevel"></path><path d="M169.664 281.242L296.534 251.867" stroke="#111717" stroke-width="2" stroke-linejoin="bevel"></path><path d="M171.3 279.812L278.992 234.531" stroke="#111717" stroke-width="2" stroke-linejoin="bevel"></path></g><path d="M67.897 539.545L48.7158 552.653" stroke="#111717" stroke-width="2" stroke-linejoin="bevel"></path><path d="M39.444 543.219L20.4714 556.178" stroke="#111717" stroke-width="2" stroke-linejoin="bevel"></path><path d="M290.922 207.302L320.297 196.293" stroke="#111717" stroke-width="2" stroke-linejoin="bevel"></path></svg>